<svg width="11" height="14" viewBox="0 0 11 14" fill="none" xmlns="http://www.w3.org/2000/svg">
<path d="M10.5744 3.7998V11.9248C10.5744 12.1491 10.53 12.3607 10.4411 12.5596C10.3565 12.7542 10.2401 12.9256 10.092 13.0737C9.9481 13.2176 9.77671 13.334 9.57782 13.4229C9.37893 13.5075 9.16945 13.5498 8.9494 13.5498H1.6369C1.41262 13.5498 1.20103 13.5075 1.00214 13.4229C0.807475 13.334 0.636088 13.2176 0.487976 13.0737C0.344096 12.9256 0.227722 12.7542 0.138855 12.5596C0.0542196 12.3607 0.0119019 12.1491 0.0119019 11.9248V3.7998H1.6369V2.9873C1.6369 2.65299 1.70038 2.33773 1.82733 2.0415C1.95852 1.74528 2.13413 1.48714 2.35419 1.26709C2.57424 1.04704 2.83238 0.873535 3.1286 0.746582C3.42483 0.615397 3.74009 0.549805 4.0744 0.549805C4.51451 0.549805 4.92287 0.659831 5.2995 0.879883C5.67613 0.659831 6.08026 0.549805 6.5119 0.549805C6.84621 0.549805 7.16148 0.615397 7.4577 0.746582C7.75393 0.873535 8.01206 1.04704 8.23212 1.26709C8.45217 1.48714 8.62567 1.74528 8.75262 2.0415C8.88381 2.33773 8.9494 2.65299 8.9494 2.9873V3.7998H10.5744ZM8.1369 2.9873C8.1369 2.76725 8.09247 2.55778 8.0036 2.35889C7.91897 2.15999 7.80259 1.98861 7.65448 1.84473C7.5106 1.69661 7.33921 1.58024 7.14032 1.49561C6.94143 1.40674 6.73195 1.3623 6.5119 1.3623C6.32147 1.3623 6.14162 1.39404 5.97235 1.45752C6.12469 1.64795 6.23895 1.83415 6.31512 2.01611C6.3913 2.19808 6.44208 2.38216 6.46747 2.56836C6.49709 2.75456 6.5119 2.94922 6.5119 3.15234C6.5119 3.35124 6.5119 3.56706 6.5119 3.7998H8.1369V2.9873ZM2.4494 3.7998H5.6994V2.9873C5.6994 2.76725 5.65497 2.55778 5.5661 2.35889C5.48147 2.15999 5.36509 1.98861 5.21698 1.84473C5.0731 1.69661 4.90171 1.58024 4.70282 1.49561C4.50393 1.40674 4.29445 1.3623 4.0744 1.3623C3.85012 1.3623 3.63853 1.40674 3.43964 1.49561C3.24497 1.58024 3.07359 1.69661 2.92548 1.84473C2.7816 1.98861 2.66522 2.15999 2.57635 2.35889C2.49172 2.55778 2.4494 2.76725 2.4494 2.9873V3.7998ZM7.54022 12.7373C7.39634 12.4834 7.3244 12.2126 7.3244 11.9248V4.6123H0.824402V11.9248C0.824402 12.0391 0.845561 12.1449 0.887878 12.2422C0.930196 12.3395 0.987325 12.4263 1.05927 12.5024C1.13544 12.5744 1.22219 12.6315 1.31952 12.6738C1.41685 12.7161 1.52264 12.7373 1.6369 12.7373H7.54022ZM9.7619 4.6123H8.1369V11.9248C8.1369 12.0391 8.15806 12.1449 8.20038 12.2422C8.2427 12.3395 8.29983 12.4263 8.37177 12.5024C8.44794 12.5744 8.53469 12.6315 8.63202 12.6738C8.72935 12.7161 8.83514 12.7373 8.9494 12.7373C9.06366 12.7373 9.16945 12.7161 9.26678 12.6738C9.36412 12.6315 9.44875 12.5744 9.52069 12.5024C9.59686 12.4263 9.65611 12.3395 9.69843 12.2422C9.74074 12.1449 9.7619 12.0391 9.7619 11.9248V4.6123Z" fill="#112D45"/>
</svg>
