<svg width="13" height="14" viewBox="0 0 13 14" fill="none" xmlns="http://www.w3.org/2000/svg">
<path d="M4.73901 8.33734C4.16349 8.53623 3.6451 8.81553 3.18384 9.17523C2.71834 9.5307 2.32479 9.9433 2.00317 10.413C1.67733 10.8828 1.42765 11.3969 1.25415 11.9555C1.08065 12.5141 0.993896 13.096 0.993896 13.7011H1.8064C1.8064 13.0071 1.93123 12.3639 2.18091 11.7714C2.42635 11.1747 2.76701 10.6585 3.20288 10.2226C3.63875 9.78672 4.15503 9.44607 4.75171 9.20062C5.34416 8.95095 5.98739 8.82611 6.6814 8.82611C7.1342 8.82611 7.57007 8.88324 7.98901 8.9975C8.40796 9.11176 8.7994 9.27468 9.16333 9.48627C9.52303 9.69362 9.85099 9.94541 10.1472 10.2416C10.4392 10.5336 10.691 10.8616 10.9026 11.2255C11.1099 11.5852 11.2708 11.9745 11.385 12.3935C11.4993 12.8124 11.5564 13.2483 11.5564 13.7011H12.3689C12.3689 13.0917 12.28 12.5099 12.1023 11.9555C11.9246 11.3969 11.6728 10.8849 11.3469 10.4194C11.0211 9.95388 10.6275 9.5434 10.1663 9.18793C9.70076 8.83246 9.18237 8.55105 8.61108 8.34369C8.94116 8.16595 9.23739 7.95013 9.49976 7.69623C9.76213 7.44232 9.98641 7.16091 10.1726 6.85199C10.3546 6.53884 10.4963 6.20664 10.5979 5.85541C10.6952 5.49994 10.7439 5.13601 10.7439 4.76361C10.7439 4.20079 10.6381 3.67393 10.4265 3.18304C10.2149 2.68793 9.92505 2.25629 9.55688 1.88812C9.18872 1.51996 8.7592 1.23008 8.26831 1.01849C7.77319 0.806905 7.24422 0.701111 6.6814 0.701111C6.11857 0.701111 5.59172 0.806905 5.10083 1.01849C4.60571 1.23008 4.17407 1.51996 3.80591 1.88812C3.43774 2.25629 3.14787 2.68793 2.93628 3.18304C2.72469 3.67393 2.6189 4.20079 2.6189 4.76361C2.6189 5.13601 2.66968 5.49782 2.77124 5.84906C2.86857 6.2003 3.01034 6.53038 3.19653 6.83929C3.3785 7.14821 3.60067 7.43174 3.86304 7.68988C4.12118 7.94379 4.41317 8.15961 4.73901 8.33734ZM9.9314 4.76361C9.9314 5.21218 9.84676 5.63324 9.67749 6.02679C9.50399 6.42035 9.27124 6.76524 8.97925 7.06146C8.68302 7.35345 8.33813 7.5862 7.94458 7.7597C7.55103 7.92898 7.12996 8.01361 6.6814 8.01361C6.23283 8.01361 5.81177 7.92898 5.41821 7.7597C5.02466 7.5862 4.68188 7.35345 4.38989 7.06146C4.09367 6.76524 3.86092 6.42035 3.69165 6.02679C3.51815 5.63324 3.4314 5.21218 3.4314 4.76361C3.4314 4.31504 3.51815 3.89398 3.69165 3.50043C3.86092 3.10687 4.09367 2.7641 4.38989 2.47211C4.68188 2.17588 5.02466 1.94314 5.41821 1.77386C5.81177 1.60036 6.23283 1.51361 6.6814 1.51361C7.12996 1.51361 7.55103 1.60036 7.94458 1.77386C8.33813 1.94314 8.68302 2.17588 8.97925 2.47211C9.27124 2.7641 9.50399 3.10687 9.67749 3.50043C9.84676 3.89398 9.9314 4.31504 9.9314 4.76361Z" fill="#112D45"/>
</svg>
