<svg width="14" height="13" viewBox="0 0 14 13" fill="none" xmlns="http://www.w3.org/2000/svg">
<path d="M0.0908203 12.5557C0.0908203 12.6742 0.12679 12.7778 0.19873 12.8667C0.270671 12.9556 0.370117 13 0.49707 13C0.607096 13 0.702311 12.9598 0.782715 12.8794L5.76562 7.90283C6.17188 8.23714 6.61833 8.49316 7.10498 8.6709C7.5874 8.84863 8.0931 8.9375 8.62207 8.9375C9.03255 8.9375 9.42822 8.8846 9.80908 8.77881C10.1899 8.67301 10.5454 8.52279 10.8755 8.32812C11.2056 8.13346 11.5081 7.90072 11.7832 7.62988C12.054 7.35482 12.2868 7.05225 12.4814 6.72217C12.6761 6.39209 12.8263 6.03662 12.9321 5.65576C13.0379 5.2749 13.0908 4.87923 13.0908 4.46875C13.0908 4.05827 13.0379 3.6626 12.9321 3.28174C12.8263 2.90088 12.6761 2.54541 12.4814 2.21533C12.2868 1.88525 12.054 1.5848 11.7832 1.31396C11.5081 1.0389 11.2056 0.804036 10.8755 0.609375C10.5454 0.414714 10.1899 0.264486 9.80908 0.158691C9.42822 0.0528971 9.03255 0 8.62207 0C8.21159 0 7.81592 0.0528971 7.43506 0.158691C7.0542 0.264486 6.69873 0.414714 6.36865 0.609375C6.03857 0.804036 5.73812 1.0389 5.46729 1.31396C5.19222 1.5848 4.95736 1.88525 4.7627 2.21533C4.56803 2.54541 4.41781 2.90088 4.31201 3.28174C4.20622 3.6626 4.15332 4.05827 4.15332 4.46875C4.15332 4.99772 4.24219 5.50553 4.41992 5.99219C4.59766 6.47461 4.85368 6.91895 5.18799 7.3252C5.12451 7.38867 5.00391 7.50928 4.82617 7.68701C4.64421 7.86475 4.42839 8.07633 4.17871 8.32178C3.9248 8.56722 3.64974 8.83805 3.35352 9.13428C3.05306 9.42627 2.7526 9.72461 2.45215 10.0293C2.14746 10.3298 1.85335 10.6239 1.56982 10.9116C1.2863 11.1994 1.03451 11.4596 0.814453 11.6924C0.594401 11.9251 0.418783 12.1198 0.287598 12.2764C0.156413 12.4287 0.0908203 12.5218 0.0908203 12.5557ZM8.62207 8.125C8.11849 8.125 7.64453 8.02979 7.2002 7.83936C6.75586 7.64469 6.36865 7.38232 6.03857 7.05225C5.7085 6.72217 5.44824 6.33496 5.25781 5.89062C5.06315 5.44629 4.96582 4.97233 4.96582 4.46875C4.96582 3.96517 5.06315 3.49121 5.25781 3.04688C5.44824 2.60254 5.7085 2.21533 6.03857 1.88525C6.36865 1.55518 6.75586 1.29492 7.2002 1.10449C7.64453 0.909831 8.11849 0.8125 8.62207 0.8125C9.12565 0.8125 9.59961 0.909831 10.0439 1.10449C10.4883 1.29492 10.8755 1.55518 11.2056 1.88525C11.5356 2.21533 11.798 2.60254 11.9927 3.04688C12.1831 3.49121 12.2783 3.96517 12.2783 4.46875C12.2783 4.97233 12.1831 5.44629 11.9927 5.89062C11.798 6.33496 11.5356 6.72217 11.2056 7.05225C10.8755 7.38232 10.4883 7.64469 10.0439 7.83936C9.59961 8.02979 9.12565 8.125 8.62207 8.125Z" fill="#112D45"/>
</svg>
